<svg preserveAspectRatio="none" width="400" height="700" viewBox="0 0 400 700" fill="none" xmlns="http://www.w3.org/2000/svg">
<g clip-path="url(#clip0_1_7)">
<rect width="400" height="700" fill="black"/>
<path d="M94.5604 35.7434C79.6421 43.6387 62.3221 52.9429 44.9662 62.2358C31.6512 69.3993 20.0285 75.6189 10.6574 83.735C7.44495 86.401 4.29556 89.1599 1.29854 91.8537C-6.32961 98.8109 -3.1349 94.5984 -8.36542 99.4776C-11.8789 102.801 -15.1996 106.168 -18.2998 109.516C-23.9898 115.671 -28.8257 122.06 -33.341 129.06C-35.6166 132.653 -34.0949 127.376 -36.445 131.232C-37.9427 133.741 -39.3493 136.334 -40.7645 139.062C-42.6962 142.743 -43.8024 146.319 -43.9839 149.629C-43.8417 148.169 -44.509 145.686 -45.4334 144.442C-46.3306 143.15 -46.8947 142.862 -46.9071 142.833C-47.8342 142.193 -48.2429 142.205 -48.0627 142.233C-47.902 142.274 -47.3095 142.348 -46.5713 142.356C-45.0643 142.382 -43.0139 142.209 -40.8911 141.929C-39.2141 141.894 -32.8979 138.977 -28.009 136.525C-22.8311 133.942 -17.4786 131.128 -12.1153 128.301C-2.24014 123.087 7.57695 117.739 17.4671 112.303C84.5566 75.1682 150.863 36.9782 216.965 -1.9909C241.075 -16.5407 266.611 -30.7677 288.027 -47.1289C292.193 -50.4481 296.241 -53.8301 299.966 -57.3202C301.81 -59.0528 303.589 -60.8324 305.082 -62.5426C305.82 -63.3877 306.502 -64.2431 306.976 -64.9337C307.216 -65.28 307.403 -65.5906 307.483 -65.7428C307.524 -65.8179 307.535 -65.8497 307.507 -65.7742C307.481 -65.6918 307.404 -65.52 307.313 -64.9997C307.013 -63.4173 307.455 -61.4705 308.211 -60.2979C308.958 -59.089 309.763 -58.5327 310.273 -58.2317C311.273 -57.6812 311.649 -57.7287 311.634 -57.7173C311.624 -57.725 311.303 -57.7441 310.883 -57.7169C310.026 -57.6684 308.786 -57.4767 307.496 -57.21C304.892 -56.6716 302.002 -55.872 299.092 -55.0216C298.44 -54.831 297.855 -54.6475 297.277 -54.4471C287.402 -50.6987 274.972 -42.1909 263.121 -34.4899C234.235 -15.3446 204.279 6.61289 179.213 27.8276C175.079 31.3354 178.322 30.1802 177.591 30.9129C166.171 42.4355 168.758 37.1613 160.556 43.8224C157.361 46.4439 154.16 49.1229 150.959 51.8604C121.688 76.8492 92.7537 106.847 69.2631 134.643C58.2361 147.811 71.1723 136.21 59.0321 148.567C58.1973 149.43 60.0172 145.292 56.9109 148.81C54.0816 152.024 50.3706 156.487 46.6535 161.125C41.0502 168.098 35.4887 175.48 32.4879 179.422C22.9243 192.101 21.4182 194.249 13.2134 206.773C8.7898 213.632 4.20869 221.068 -0.212151 228.909C-5.88304 238.956 -11.2387 249.323 -14.684 259.845C-15.3134 261.725 -15.8891 263.598 -16.3989 265.451C-17.5131 269.772 -14.829 264.461 -16.2932 271.283C-16.9214 274.356 -18.0564 281.211 -17.3227 284.507C-17.281 284.69 -17.2638 284.766 -17.1095 284.996C-16.9581 285.217 -16.63 285.564 -16.1277 285.936C-15.1244 286.693 -13.545 287.449 -12.123 288.018C-11.4512 288.3 -10.7457 288.519 -10.1503 288.686C-7.74047 289.319 -6.7938 289.633 -6.61731 289.988C-6.40747 290.325 -6.79877 290.605 -6.2838 290.761C-0.564708 292.623 11.9311 290.766 20.1741 289.11C24.0045 288.332 26.9628 287.427 27.8799 287.235C44.5328 283.543 60.5712 278.048 76.1005 272.724C106.522 262.014 135.385 250.456 164.673 236.382C166.017 235.73 167.339 235.083 168.68 234.419C188.96 224.39 209.405 212.701 228.623 200.129C241.597 191.757 253.317 183.056 263.916 173.388C264.427 172.929 264.95 172.458 265.458 171.997C277.366 161.135 288.374 150.312 298.463 139.433C301.78 135.823 304.965 132.146 307.792 128.413C309.189 126.564 310.526 124.655 311.598 122.842C312.13 121.942 312.601 121.044 312.895 120.337C313.04 119.996 313.134 119.684 313.139 119.663C313.145 119.661 313.117 119.733 313.116 120.081C313.154 120.42 313.033 121.154 313.924 122.67C314.302 123.287 314.95 123.716 315.183 123.801C315.435 123.904 315.358 123.839 315.112 123.809C314.606 123.73 313.561 123.74 312.454 123.853C310.201 124.077 307.565 124.6 304.852 125.138C298.282 126.834 288.531 133.195 279.934 138.275C276.132 140.592 281.377 139.172 276.719 142.025C271.153 145.446 265.694 148.85 260.142 152.328C216.248 179.972 172.683 207.946 129.096 235.934C124.196 239.091 129.7 233.808 124.756 236.902C119.605 240.135 113.904 243.703 107.987 247.47C78.8118 265.416 45.4802 290.772 37.5957 307.357C37.2308 307.729 36.8621 308.106 36.4896 308.487C19.9272 325.423 1.06228 346.782 -13.0861 362.447C-22.314 372.745 -15.2098 361.491 -24.9981 374.879C-25.0638 374.97 -25.1302 375.062 -25.1972 375.155C-27.4478 378.289 -23.3892 375.094 -26.8197 379.735C-40.5221 398.326 -55.1323 418.851 -66.5855 438.814C-67.1722 439.835 -67.7444 440.844 -68.3039 441.846C-70.6665 446.101 -69.0025 445.532 -69.5157 446.812C-73.2871 455.892 -81.5251 468.319 -84.686 474.481C-85.2821 475.583 -85.7231 476.452 -85.9753 477.015C-89.9083 485.8 -92.5477 495.343 -91.1696 501.287C-91.8872 503.528 -82.3161 505.037 -74.927 503.947C-67.0769 503.144 -58.9742 501.403 -50.1286 499.801C-48.1825 499.451 -46.1936 499.008 -44.1749 498.491C-37.7706 496.738 -45.7234 497.414 -39.6281 495.581C-32.8034 493.425 -25.8865 490.671 -18.8988 487.798C-6.05293 482.511 6.54452 476.235 18.7874 469.449C30.1514 463.284 40.6687 455.708 51.1538 448.106C57.2568 443.643 52.5311 448.884 55.4733 446.808C68.5081 437.501 69.724 433.366 82.0416 424.189C84.6209 422.256 83.9038 424.255 84.4396 423.981C92.8188 419.697 97.457 412.428 99.1812 410.949C107.591 403.717 115.131 397.783 122.499 392.169C134.974 382.669 146.783 374.239 160.781 362.282C163.439 360.007 156.501 363.948 163.984 357.654C213.87 315.66 266.97 271.561 317.064 230.815C324.866 224.464 320.057 229.898 320.625 229.588C329.77 224.536 333.148 218.125 335.571 215.947C354.854 198.712 374.743 184.885 386.031 171.079C392.981 165.317 399.995 159.469 406.845 153.733C431.449 133.784 460.252 106.459 479.823 93.3325C479.863 93.6545 479.938 94.1423 480.222 94.7966C480.508 95.4815 481.165 96.3981 482.008 96.9693C482.723 97.473 483.503 97.7323 484.102 97.8316C484.634 97.9164 484.879 97.9074 485.169 97.8989C485.75 97.863 485.892 97.8073 486.068 97.7696C486.228 97.7289 486.328 97.6939 486.368 97.6799C486.563 97.6074 486.459 97.6418 486.356 97.6966C486.146 97.8021 485.783 98.0065 485.449 98.2051C484.722 98.6373 484.02 99.083 483.221 99.6009C481.697 100.59 480.179 101.615 478.645 102.663C475.568 104.767 472.473 106.936 469.42 109.089C463.313 113.398 457.092 117.853 451.03 122.207C438.775 131.012 426.668 139.77 414.34 148.661C384.668 170.067 354.951 191.359 324.972 212.271C323.839 213.066 325.039 210.513 322.78 212.105C295.698 231.179 302.037 229.091 285.951 244.185C281.9 247.984 266.581 255.533 265.254 256.241C260.411 258.807 263.73 253.854 262.178 254.807C249.384 262.754 255.281 266.579 239.062 278.687C238.548 279.057 239.951 276.493 238.519 277.413C234.074 280.259 230.152 283.793 225.778 286.544C215.727 292.861 210.44 292.811 197.124 305.159C195.452 306.723 200.469 307.616 185.96 318.339C180.16 322.607 154.776 341.946 147.554 347.191C140.362 352.392 144.465 347.732 143.928 348.078C128.136 358.604 128.989 357.126 124.749 358.639C123.577 359.076 122.027 359.743 119.724 360.901C108.766 366.439 114.877 368.8 111.393 372.315C107.881 375.836 93.3057 385.689 89.6028 388.095C85.9909 390.406 89.6626 386.477 86.5341 388.657C65.6516 403.387 79.5391 397.912 73.6426 403.883C59.825 418.104 45.3321 424.867 32.3147 437.396C28.8506 440.827 32.2796 438.604 29.3873 441.811C26.9711 444.522 24.807 447.036 22.7455 449.459C15.5769 458.387 7.38667 466.115 4.44574 479.735C4.44533 479.741 4.44495 479.747 4.44457 479.753C4.43763 479.972 4.516 480.232 4.6556 480.326C4.79303 480.414 4.97642 480.553 5.64756 480.858C9.70539 483.224 19.3258 481.225 26.6453 480.721C28.0937 480.624 24.3781 482.678 31.4829 481.063C35.2813 480.168 40.1441 478.777 45.412 477.321C54.5604 474.902 64.0622 469.333 70.6082 465.528C78.1287 460.993 68.5153 464.497 78.338 459.484C82.6552 457.255 75.3645 462.647 83.465 458.351C91.5118 454.113 111.612 441.884 119.087 437.228C120.188 436.546 121.043 435.983 121.69 435.526C125.319 432.941 121.917 433.912 122.391 433.532C125.871 430.815 140.038 421.29 141.267 420.519C205.68 380.112 265.968 344.178 327.625 303.18C332.453 299.962 328.471 300.93 329.2 300.428C345.561 289.036 334.378 300.705 346.696 294.072C345.387 293.576 345.816 292.592 347.517 291.092C350.116 288.83 355.296 285.539 362.112 280.785C367.67 276.9 363.999 278.057 364.454 277.621C371.84 270.73 378.798 268.544 380.5 267.907C386.888 265.483 391.746 259.851 396.028 258.138C400.302 256.409 392.741 263.674 403.693 255.884C406.198 252.864 396.555 256.601 404.589 250.301C410.059 245.932 416.576 241.002 422.8 235.135C425.606 232.464 429.365 229.1 430.515 226.986C430.67 226.689 430.74 226.417 430.731 226.441C430.731 226.458 430.705 226.564 430.757 226.853C430.805 227.128 430.992 227.652 431.424 228.09C431.717 228.403 432.157 228.622 432.375 228.677C432.604 228.74 432.646 228.721 432.589 228.723C432.467 228.717 432.025 228.772 431.554 228.886C430.582 229.114 429.418 229.51 428.247 229.948C425.889 230.834 423.449 231.887 420.997 232.962C405.099 240.45 389.786 252.316 376.886 262.084C367.413 269.395 359.261 276.148 353.264 281.285C329.981 301.452 323 308.59 309.852 320.813C302.095 328.121 298.051 332.379 295.558 335.242C290.5 341.136 291.829 341.154 283.169 351.454C270.461 366.997 273.423 356.653 270.726 358.144C268.083 359.645 266.855 362.702 264.151 365.079C261.456 367.458 265.824 361.08 260.341 367.404C254.746 373.68 242.495 393.088 241.74 396.152C239.997 402.566 247.683 395.474 234.592 413.074C233.847 414.09 235.105 410 232.298 413.936C230.605 416.324 228.933 418.718 227.256 421.155C207.033 450.644 188.188 482.434 170.071 513.071C167.383 517.632 168.485 512.824 166.906 515.478C163.534 521.151 161.194 525.321 159.554 528.46C153.237 540.661 156.934 537.701 152.335 551.003C151.221 545.994 144.195 553.285 134.454 575.888C133.026 579.33 132.171 581.811 131.608 583.723C129.969 589.408 130.785 590.122 129.266 597.08C128.614 599.843 124.709 609.503 124.994 611.524C125.612 616.612 128.536 612.428 126.879 621.487C126.442 624.084 125.67 627.777 124.683 633.166C124.486 634.233 123.699 630.635 123.116 634.342C121.742 643.499 121.711 649.697 122.147 655.096C123.234 663.567 124.497 670.651 133.581 682.538C134.518 683.704 135.559 684.918 136.703 686.168C143.085 693.397 158.859 697.763 173.701 700.561C180.682 702.014 187.801 701.231 194.728 700.139C198.298 699.587 201.697 698.91 204.833 698.187C205.1 700.974 216.095 698.659 224.929 694.434C228.561 692.735 231.812 690.778 233.909 689.052C244.291 684.816 254.763 678.996 264.658 673.149C268.097 671.119 271.481 669.075 274.753 667.087C279.104 664.426 276.904 667.185 277.509 666.939C286.855 663.128 290.862 657.096 293.502 655.11C307.699 644.442 320.509 634.643 332.752 624.447C345.238 614.021 357.136 603.157 368.872 590.364C369.693 589.454 369.231 586.194 377.087 581.109C377.601 580.777 370.486 589.693 381.918 578.293C389.159 571.02 400.681 559.801 411.386 547.777C417.522 540.901 423.393 533.768 428.173 527.143C431.378 522.746 438.118 510.672 445.949 502.816C447 501.772 446.677 503.526 448.273 502.066C453.406 497.314 453.34 492.705 459.779 487.357C462.337 485.219 465.585 481.859 469.184 477.273C474.628 470.312 480.96 460.518 486.417 447.845C486.703 447.164 487.288 441.427 490.198 434.957C490.82 433.571 491.466 432.101 492.113 430.57C494.698 424.14 498.014 415.971 495.82 408.398C495.369 406.898 493.957 405.969 492.598 405.414C490.312 404.491 487.86 404.537 485.672 404.717C480.02 405.44 483.858 406.314 482.886 406.465C480.178 406.98 477.539 407.69 474.954 408.446C464.866 412.075 456.779 419.633 448.485 425.664C432.246 438.208 416.69 450.856 398.22 468.058C393.785 472.172 383.79 483.621 374.5 493.08C372.25 495.36 370.021 497.527 367.898 499.422C356.069 510.259 361.82 493.314 338.956 522.455C329.833 534.36 324.565 554.031 305.331 572.852C300.713 579.421 296.168 585.93 291.718 592.406C273.045 619.586 255.832 646.584 241.596 676.341C237.365 685.177 233.385 694.257 229.769 703.619C228.913 705.806 228.276 713.484 226.324 718.563C223.808 725.072 221.636 728.844 219.896 733.28C219.615 734.005 219.365 734.694 219.116 735.468C216.321 744.726 213.482 754.703 216.818 763.489C219.597 768.209 226.151 768.268 231.341 768.996C239.302 769.527 247.176 766.577 254.997 764.047C263.363 761.109 260.86 763.242 270.776 759.447C271.645 759.109 272.449 758.783 273.269 758.439C281.768 754.785 287.543 750.621 299.259 744.733C308.928 739.811 319.79 736.617 332.071 728.927C331.913 728.552 331.924 728.13 332.1 727.653C333.211 724.577 341.091 719.327 353.111 709.926C355.78 707.833 352.217 709.098 353.449 708.063C358.419 703.851 363.793 700.998 368.403 696.852C369.524 695.845 368.971 694.983 369.852 694.11C377.321 686.712 392.263 677.988 394.82 676.441C404.635 670.591 407.892 666.199 414.94 661.097C421.797 656.088 412.957 664.493 419.964 659.061C420.135 658.927 420.316 658.786 420.505 658.636C437.066 645.621 456.744 626.964 471.541 611.536C477.446 605.374 472.434 608.645 473.258 607.74C475.342 605.458 477.466 603.183 479.543 600.962C488.733 591.06 498.186 580.846 498.586 572.643C498.584 572.293 498.548 571.963 498.48 571.664C499.507 570.602 499.854 569.099 499.528 567.786C498.754 565.08 496.736 563.785 494.697 563.246C489.815 562.253 486.187 565.537 476.971 570.012C475.129 570.924 473.07 571.936 470.756 573.096C469.05 573.99 464.971 572.393 471.608 568.143C472.672 567.489 473.855 566.841 475.142 566.207C480.237 564.198 485.864 559.809 495.222 561.694C497.683 562.572 499.909 563.684 501.871 566.25C502.181 566.684 502.462 567.156 502.699 567.659C503.201 568.574 504.074 571.226 503.647 573.966C502.825 580.757 498.746 588.385 497.998 589.729C489.147 603.31 483.694 601.118 483.005 601.642C482.481 601.941 481.945 602.287 481.398 602.676C473.482 608.301 464.609 621.558 461.636 624.756C448.094 639.564 434.916 650.699 422.483 662.026C421.762 662.682 421.04 663.341 420.318 664.005C411.736 671.829 412.891 675.044 405.704 680.706C381.643 699.321 370.551 701.921 349.473 721.623C345.213 725.496 351.081 725.39 335.906 733.394C334.741 734.002 333.502 734.623 332.081 735.32C330.829 735.958 315.744 742.696 308.365 748.873C307.426 749.664 307.996 750.531 306.667 751.409C297.71 757.211 291.112 759.977 280.317 765.178C279.134 765.736 277.891 766.304 276.632 766.857C266.83 771.069 255.928 776.207 242.862 778.743C239.337 779.346 235.047 779.68 230.205 778.721C225.008 777.499 219.579 775.549 216.373 773.455C214.289 772.145 211.522 769.998 210.048 766.459C205.949 753.472 208.521 744.265 210.966 738.733C214.159 733.025 213.278 743.996 217.949 732.645C218.341 731.752 218.788 730.686 219.281 729.485C216.943 728.003 214.813 725.706 212.613 723.809C218.895 706.158 226.447 689.403 234.671 672.966C243.498 655.347 253.233 638.144 263.596 621.19C266.085 617.13 262.284 620.513 264.941 616.139C271.253 605.813 277.681 596.617 284.363 587.305C289.594 580.024 294.979 572.676 300.658 564.703C310.646 550.666 321.099 534.823 332.378 520.682C340.48 515.049 353.935 498.697 366.476 485.506C368.484 483.382 370.451 481.346 372.349 479.44C377.179 474.61 377.461 475.515 381.062 472.273C394.766 460.116 386.795 464.215 390.089 460.404C404.546 444.233 409.989 447.46 429.124 430.965C429.99 430.198 438.175 420.239 441.467 416.723C441.956 416.196 442.318 415.815 442.529 415.617C453.232 405.704 445.064 415.043 452.531 409.748C458.696 405.66 463.868 401.654 472.378 399.223C478.655 398.167 483.387 394.772 495.644 397.901C497.694 398.681 501.967 400.752 503.71 405.777C504.389 407.625 504.849 409.734 505.05 411.693C505.804 417.321 504.766 426.476 501.545 434.425C500.158 437.955 498.452 441.398 496.486 444.364C495.666 445.595 495.033 444.408 494.467 445.431C483.926 463.895 486.27 465.751 481.012 476.799C480.082 478.683 478.943 480.676 477.673 482.695C471.65 492.336 462.615 502.213 460.336 504.411C453.167 511.405 464.118 497.835 464.239 497.259C466.103 490.931 458.804 502.275 452.527 510.417C448.986 509.66 440.493 521.14 445.992 518.834C446.626 518.561 451.188 512 452.527 510.417C449.824 519.624 440.431 532.602 426.803 543.942C421.822 548.059 423.028 544.761 416.322 552.118C414.421 554.187 411.871 557.104 408.307 561.226C400.939 569.673 405.568 568.056 399.223 575.711C384.67 593.204 361.981 612.185 344.492 627.71C338.127 633.353 345.238 628.907 340.892 632.791C340.688 632.972 340.485 633.151 340.282 633.33C328.905 643.336 317.806 650.951 305.75 660.33C304.634 661.195 308.207 660.239 304.286 663.094C293.377 671.008 282.608 678.081 271.578 684.607C258.383 692.396 244.353 699.72 228.653 705.029C221.828 707.369 214.762 709.459 207.302 711.234C204.273 711.953 200.829 712.717 197.051 713.41C190.333 714.662 180.852 716.236 171.372 714.636C157.714 712.504 142.957 709.602 132.054 702.214C129.8 700.673 127.529 698.81 125.443 696.496C115.885 686.5 108.974 670.221 109.535 655.283C109.755 642.218 111.731 630.151 114.13 618.882C115.829 611.054 117.857 603.766 119.817 597.255C123.269 586.073 123.892 583.336 124.122 580.86C124.287 579.364 124.374 578.003 125.202 575.027C129.326 559.506 144.871 536.935 146.975 534.064C147.016 533.957 139.956 548.134 144.467 540.957C147.996 537.26 146.9 534.22 146.975 534.064C147.47 533.369 149.641 529.528 152.439 524.577C157.555 515.491 164.823 502.723 166.679 499.139C168.232 496.127 166.211 497.154 167.046 495.59C182.001 467.714 197.85 440.278 215.542 413.456C221.394 404.617 227.482 395.853 233.878 387.246C234.344 386.645 234.807 388.388 235.885 386.971C251.111 367.187 260.161 353.805 273.373 337.839C277.322 333.102 281.177 328.788 284.904 324.89C293.667 315.734 301.718 308.833 309.022 304.17C319.943 293.239 337.072 279.153 347.149 271.337C357.204 263.517 356.887 260.34 357.713 259.56C361.18 256.371 364.516 253.425 367.775 250.666C383.291 237.883 395.309 228.417 414.814 219.198C417.23 218.173 419.713 217.123 422.599 216.053C424.058 215.523 425.585 214.969 427.708 214.439C428.81 214.185 430.002 213.889 432.065 213.808C433.104 213.787 434.407 213.802 436.206 214.266C437.954 214.696 440.398 215.886 442.117 217.712C446.027 221.932 445.744 226.312 445.468 228.506C445.103 230.889 444.424 232.389 443.775 233.695C442.534 236.103 441.152 237.67 440.105 238.847C437.704 241.469 435.383 243.588 432.775 246.004C418.002 259.432 396.172 273.936 383.326 283.096C372.073 290.953 364.708 295.186 354.742 302.062C354.023 302.558 353.285 303.072 352.523 303.606C351.03 304.654 353.235 304.653 352.796 304.998C340.995 314.481 345.409 308.036 342.501 309.311C332.021 313.868 325.652 316.806 309.976 328.044C306.36 330.634 297.785 341.255 291.12 345.843C282.432 351.813 284.934 348.387 275.87 354.652C275.097 355.184 275.75 355.887 270.014 359.517C243.312 376.43 213.955 394.471 186.22 412.062C182.423 414.465 188.081 412.67 182.633 416.145C165.725 426.924 147.64 438.263 129.928 448.922C120.648 454.504 111.625 459.812 102.714 464.867C96.3111 468.482 99.7305 465.221 98.2046 465.769C88.875 469.166 78.0816 478.464 76.0331 479.612C67.9444 484.22 59.8518 488.999 49.6397 491.968C42.7446 493.993 35.4947 496.372 27.3946 498.029C19.3493 499.155 9.79673 502.445 -3.59783 494.543C-5.3712 493.318 -7.77757 491.355 -9.58566 487.933C-11.437 484.529 -11.7797 480.279 -11.3067 477.488C-6.16888 457.991 2.53623 450.659 10.946 439.635C19.3181 429.476 29.18 419.989 39.3561 410.547C41.5775 408.354 57.5783 390.841 67.2972 386.247C67.9329 385.938 77.5697 381.4 83.557 374.383C83.9062 373.967 78.1179 376.881 86.9008 370.061C94.3013 364.322 105.084 355.096 116.08 347.432C118.144 345.996 120.252 344.589 122.374 343.249C126.48 340.663 137.148 335.695 147.387 325.329C148.038 324.644 163.039 307.447 171.285 305.226C172.637 304.866 173.581 308.369 186.317 296.607C188.734 294.368 183.514 297.353 190.152 291.77C200.337 283.202 214.968 273.366 227.155 262.39C229.28 260.471 237.628 251.382 246.467 246.97C247.852 246.28 246.204 248.911 250.398 245.946C270.348 231.854 290.453 216.016 310.843 201.926C318.074 196.927 315.569 201.041 323.185 196.028C330.867 190.965 345.99 180.412 353.209 174.074C360.453 167.717 350.227 171.626 361.718 162.898C375.218 152.646 389 142.462 402.612 132.585C414.959 123.627 427.145 114.925 439.536 106.2C445.669 101.886 451.971 97.4787 458.214 93.1826C461.338 91.0342 464.509 88.8674 467.751 86.7056C469.375 85.6246 470.984 84.5629 472.749 83.4436C473.69 82.8482 474.517 82.332 475.648 81.6707C476.194 81.356 476.804 81.003 477.704 80.5519C478.254 80.2876 478.691 80.0447 479.996 79.5722C480.253 79.4824 480.772 79.3084 481.383 79.1561C482.033 79.0111 482.574 78.8304 484.308 78.7262C485.164 78.7012 485.864 78.6797 487.347 78.917C489.004 79.1942 491.102 79.9009 493.012 81.2481C495.265 82.7798 497.011 85.2166 497.787 87.0704C498.555 88.8403 498.77 90.1954 498.885 91.1331C499.33 94.9527 498.082 97.8857 497.576 98.9497C497.216 99.6978 497.023 100.011 496.795 100.391C496.584 100.738 496.33 101.11 496.209 101.281C495.571 102.173 495.218 102.563 494.84 102.997C494.217 103.696 493.722 104.191 493.284 104.626C492.373 105.523 491.667 106.174 490.864 106.912C489.351 108.293 487.911 109.563 486.47 110.825C483.568 113.362 480.682 115.838 477.83 118.278C472.131 123.148 466.302 128.09 460.625 132.915C453.518 138.948 460.124 134.671 449.73 143.571C440.967 151.069 430.887 159.723 419.902 169.124C383.188 200.55 338.031 238.895 311.239 259.222C283.397 280.344 316.139 251.03 295.261 267.657C285.205 275.669 276.709 287.216 274.401 289.293C251.857 309.637 234.755 322.018 214.059 339.915C209.803 343.596 214.91 341.111 211.287 344.224C198.858 354.916 185.223 365.487 173.227 375.599C167.799 380.178 169.561 380.073 164.473 384.19C154.263 392.459 144.939 399.729 134.823 407.149C132.973 408.51 131.132 409.847 129.292 411.166C128.173 411.969 134.487 405.104 125.639 412.304C111.275 423.981 92.7473 437.843 76.5138 451.873C71.6754 456.028 73.0213 458.095 61.012 465.15C58.4041 466.629 59.9191 462.137 48.1428 473.674C46.9948 474.766 38.9921 482.124 29.3279 488.1C23.0103 492.105 16.115 495.764 10.8063 497.428C7.34127 498.539 -1.85412 500.368 -8.98116 503.75C-9.94217 504.213 -5.56017 503.754 -11.3157 506.305C-11.374 506.331 -11.4333 506.357 -11.4936 506.383C-22.128 510.89 -33.3557 515.631 -46.848 518.218C-57.6522 520.119 -68.7224 523.064 -82.7278 523.257C-86.7135 523.174 -85.8317 523.505 -85.3229 523.923C-84.95 524.205 -84.4518 525.064 -91.6851 523.844C-94.6005 523.208 -98.0816 522.233 -102 519.596C-105.925 517.066 -109.846 511.952 -111.138 506.96C-114.89 487.916 -109.059 477.62 -104.843 466.088C-99.295 452.973 -92.4281 441.116 -86.2281 431.062C-85.3796 429.691 -84.7462 428.75 -84.2726 428.111C-82.3457 425.526 -83.268 428.236 -83.2914 428.705C-83.2961 428.777 -83.2804 428.798 -83.2313 428.742C-83.231 428.742 -83.2308 428.742 -83.2305 428.741C-75.9859 420.554 -74.731 413.865 -72.9028 410.765C-61.8044 392.224 -51.1555 379.439 -39.3169 363.752C-38.9724 363.298 -38.6261 362.84 -38.278 362.379C-34.8717 357.891 -38.3204 360.261 -37.7159 359.309C-31.3403 349.508 -34.9722 357.69 -30.1819 352.111C-16.7181 336.537 -1.8884 319.198 12.123 303.808C17.282 298.165 10.3558 303.472 15.0236 298.418C16.7378 296.568 18.4685 294.721 20.209 292.887C42.4975 268.357 70.998 248.669 97.026 231.414C101.974 228.146 106.9 224.941 111.806 221.787C118.039 217.788 114.789 221.317 116.209 220.672C125.989 216.261 137.561 205.683 140.418 203.525C153.383 193.711 159.185 191.103 171.08 183.135C194.933 167.177 221.272 150.07 248.222 133.239C265.202 123.458 275.406 113.821 300.696 104.76C303.48 104.218 306.424 103.578 310.285 103.165C312.262 102.985 314.42 102.78 317.686 103.161C320.59 103.564 327.077 104.724 331.526 111.561C334.037 115.809 333.859 118.45 333.932 120.188C333.912 121.912 333.686 123.12 333.491 124.043C333.066 125.945 332.6 127.143 332.156 128.245C331.253 130.413 330.402 131.942 329.537 133.427C327.819 136.334 326.113 138.732 324.392 141.027C320.956 145.575 317.456 149.603 313.959 153.437C306.982 161.037 300.106 167.928 293.359 174.475C288.223 179.445 283.094 184.243 277.861 188.889C265.777 199.81 252.284 209.332 239.643 217.234C217.671 231.141 195.719 243.054 173.18 253.851C145.333 267.075 117.05 279.145 85.4397 290.67C81.3603 292.129 84.2759 292.143 83.1859 292.937C82.934 293.119 82.4698 293.341 81.6696 293.627C62.8092 300.129 44.4668 306.669 22.4979 309.591C9.81081 310.41 -0.65808 313.978 -19.7315 308.724C-22.7105 307.599 -26.0556 306.211 -29.7845 303.409C-33.4425 300.742 -37.688 295.563 -38.9756 289.541C-41.4148 272.363 -37.1699 263.86 -34.0964 253.214C-30.0292 241.039 -24.3179 229.659 -18.6061 219.051C-18.5699 218.984 -18.5352 218.919 -18.5021 218.856C-16.3878 214.891 -20.8954 220.154 -17.1565 213.283C-9.36015 198.914 2.19098 181.723 12.218 168.951C17.1088 162.711 11.7576 171.949 16.6619 165.685C21.1683 159.966 25.8413 154.148 30.6136 148.295C37.9371 139.314 45.454 130.286 52.8327 121.54C58.024 115.408 48.9758 123.613 55.8259 115.726C80.8697 87.0557 107.133 59.9312 135.525 34.6711C160.209 12.7733 186.192 -7.51645 213.457 -26.6446C217.499 -29.4676 222.661 -29.6509 230.815 -36.1863C230.979 -37.3037 230.388 -38.0572 230.16 -38.9631C236.876 -43.8015 243.596 -48.5268 250.44 -53.1926C263.387 -61.4872 273.587 -70.3951 292.522 -77.0724C295.71 -78.0123 298.947 -78.9465 302.734 -79.7527C304.655 -80.1482 306.685 -80.5317 309.331 -80.7187C312.038 -80.6927 315.266 -81.5728 321.874 -78.1686C325.578 -76.3947 331.659 -69.3329 330.069 -61.1785C328.739 -55.2119 327.286 -54.0321 326.086 -51.9844C324.874 -50.2103 323.707 -48.7812 322.576 -47.469C320.307 -44.8579 318.088 -42.656 315.873 -40.5606C311.432 -36.384 307.005 -32.6915 302.51 -29.0979C277.918 -10.3467 253.507 2.92846 228.86 17.8697C201.338 34.1688 173.636 50.3026 145.842 66.4919C142.11 68.6649 149.342 66.2403 142.114 70.4562C104.776 92.2041 68.5095 113.641 29.8181 134.274C25.1306 136.768 20.4704 139.212 15.7567 141.641C11.3445 143.904 12.2961 140.305 -0.30951 147.651C-2.53478 148.965 -21.5354 159.624 -27.6528 162.606C-28.0634 162.825 -27.0251 162.763 -26.8916 163.069C-26.8275 163.363 -27.0862 164.023 -31.803 165.635C-33.4247 166.164 -35.6853 166.706 -37.5736 166.944C-40.3746 167.315 -43.2767 167.645 -46.8463 167.626C-50.3696 167.409 -54.9666 167.819 -61.7101 163.364C-62.8898 162.485 -64.6574 161.195 -66.4971 158.497C-68.3769 155.863 -69.5406 151.529 -69.2883 148.399C-68.9294 140.739 -66.5748 133.673 -63.5487 127.664C-57.3294 114.809 -48.3522 101.646 -38.2242 91.0821C-28.3739 80.7467 -18.4267 71.3867 -7.65637 62.3783C-6.44479 61.3751 -5.20641 60.3698 -3.93634 59.3717C1.77402 54.9944 -3.40315 60.8006 0.696424 57.744C11.0035 50.2401 21.7335 44.5949 32.2215 38.8123C51.9907 28.0561 71.8982 17.13 91.0367 8.41591C100.068 4.32703 103.757 3.43143 106.133 3.29003C108.923 3.15089 109.89 4.05361 116.069 2.74092C117.604 2.32297 130.222 -2.51315 131.397 -1.295C134.018 1.39575 129.324 6.86992 132.89 9.46932C133.232 9.75539 137.336 8.35044 139.571 8.09107C140.718 7.9415 141.056 8.06728 141.063 8.26005C141.017 8.48592 141.287 8.65116 139.653 9.41995C139.619 9.2386 128.778 13.5232 126.19 15.4296C124.448 16.6223 128.411 16.4608 124.727 18.6026C122.088 20.1489 118.954 21.0153 115.053 22.7331C113.535 23.4009 111.845 24.2398 110.068 25.305C103.89 29.065 107.433 28.9806 94.5604 35.7434ZM393.972 237.823C404.523 232.187 403.477 227.179 393.282 235.458C392.803 235.866 393.426 238.128 393.972 237.823ZM247.665 656.467C256.757 643.906 259.477 633.325 252.629 641.953C245.822 650.686 244.91 660.341 247.665 656.467ZM260.986 766.367C243.448 770.68 242.287 778.017 260.796 770.427C261.844 769.967 262.017 766.09 260.986 766.367ZM69.1419 26.6593C69.3118 26.6349 77.7237 22.2833 77.8991 22.1281C81.6655 18.4335 64.8244 27.1388 69.1419 26.6593ZM393.769 681.715C388.835 684.463 376.696 695.039 382.904 691.742C387.931 689.106 399.951 678.313 393.769 681.715ZM30.2992 436.117C30.4924 435.985 35.3257 431.273 34.9592 431.094C33.6874 430.456 27.2742 437.478 30.2992 436.117ZM416.634 627.731C424.214 613.474 433.56 603.379 439.377 598.627C445.598 593.62 447.339 593.639 441.529 600.578C439.265 603.376 435.902 607.387 431.677 613.155C427.012 619.231 440.206 598.954 433.873 606.367C424.734 617.08 421.171 627.205 416.135 638.471L416.182 638.355C415.417 640.456 414.628 642.515 414.883 644.111C415.013 645.131 415.392 646.259 415.888 647.566C416.374 648.644 414.697 647.162 413.368 644.442C412.47 642.674 412.853 639.846 413.405 637.307C413.406 637.303 413.412 637.289 413.414 637.285C414.623 632.759 416.199 628.521 416.66 627.664C416.651 627.686 416.643 627.708 416.634 627.731ZM402.826 238.738C403.026 238.616 411.002 233.674 411.191 233.572C414.773 229.557 398.54 239.51 402.826 238.738ZM344.397 196.322C344.873 196.135 362.482 183.336 362.998 182.806C370.676 174.074 335.067 199.944 344.397 196.322ZM205.213 698.201C211.141 695.772 217.778 693.337 223.896 691.493C227.476 690.421 230.866 689.556 233.866 689.068C230.719 690.347 227.532 691.537 224.302 692.649C218.037 694.807 211.66 696.692 205.213 698.201Z" fill="#5E3CB1"/>
</g>
<defs>
<clipPath id="clip0_1_7">
<rect width="400" height="700" fill="white"/>
</clipPath>
</defs>
</svg>
