<svg width="288" height="288" viewBox="0 0 288 288" fill="none" xmlns="http://www.w3.org/2000/svg">
<path fill-rule="evenodd" clip-rule="evenodd" d="M0 144V288H144H288V144V0H144H0V144Z" fill="white"/>
<path fill-rule="evenodd" clip-rule="evenodd" d="M128 28.427C98.233 34.689 74.991 57.437 65.601 89.5C63.623 96.253 63.54 99.296 63.236 175.877C62.944 249.353 63.046 255.394 64.615 257.127C67.816 260.664 69.974 259.396 82.203 246.791L94.049 234.581L105.29 245.791C112.676 253.156 117.274 257 118.696 257C120.128 257 124.625 253.193 131.984 245.75L143.108 234.5L153.89 245.75C162.105 254.321 165.28 257 167.222 257C169.165 257 172.257 254.386 180.234 246C185.989 239.95 191.016 235 191.406 235C191.796 235 197.095 240.181 203.182 246.512C209.269 252.844 215.337 258.297 216.665 258.631C218.265 259.032 219.755 258.626 221.08 257.428C223.051 255.644 223.074 254.539 222.766 176.559C222.46 99.225 222.407 97.334 220.308 89.907C211.785 59.747 192.47 39.288 163.625 29.866C155.624 27.253 137.131 26.506 128 28.427ZM166.5 41.99C170.9 43.796 175.21 45.887 176.079 46.637C176.947 47.387 178.155 48 178.762 48C179.37 48 183.719 51.646 188.426 56.101C198.71 65.837 204.683 75.027 209.155 88L212.43 97.5L212.764 169.25C212.977 214.947 212.747 241 212.132 241C211.601 241 207.387 236.95 202.768 232C191.498 219.922 191.822 219.895 178.167 234.088L167.5 245.177L156.533 234.088C148.009 225.47 144.97 223 142.892 223C140.793 223 137.924 225.395 129.53 234.155L118.841 245.309L107.655 234.155C99.453 225.976 95.809 223 93.998 223C92.26 223 89.583 225.004 84.981 229.75C81.381 233.462 77.193 237.609 75.674 238.965L72.913 241.43L73.207 168.965L73.5 96.5L76.262 88.693C77.781 84.399 80.098 78.767 81.41 76.178C87.881 63.408 100.585 50.962 113.662 44.583C124.95 39.076 130.451 38.004 145.5 38.381C157.512 38.682 159.108 38.956 166.5 41.99ZM100.4 109.4C97.809 111.991 97 113.646 97 116.353C97 121.135 98.597 124.331 101.99 126.335C107.466 129.57 115.531 127.521 117.915 122.288C121.39 114.66 116.119 106 108 106C104.557 106 103.187 106.613 100.4 109.4ZM171.5 108.118C167.429 111.257 167.031 111.958 167.029 116C167.026 121.623 168.018 123.848 171.482 125.989C176.27 128.948 181.276 128.618 185.234 125.082C188.107 122.515 188.5 121.555 188.5 117.105C188.5 112.974 188.017 111.563 185.868 109.413C182.065 105.611 175.518 105.02 171.5 108.118ZM116.655 156.829C114.813 158.865 114.542 161.726 115.978 164C116.77 165.255 121.034 165.549 142.079 165.8C164.638 166.068 167.427 165.923 169.116 164.395C171.506 162.232 171.531 158.79 169.171 156.655C167.574 155.21 164.236 155 142.826 155C120.345 155 118.173 155.152 116.655 156.829Z" fill="#CBCBCB"/>
</svg>
